<svg xmlns="http://www.w3.org/2000/svg" viewBox="0 0 256 256" role="img" aria-label="WhatsApp">
  <circle cx="128" cy="128" r="128" fill="#25D366"/>
  <path fill="#FFFFFF" d="M188.5 67.5A84.8 84.8 0 0 0 53.1 166.8L42 207.4l41.6-10.9a84.5 84.5 0 0 0 40.5 10.3h.1c46.8 0 84.9-38.1 84.9-84.9 0-22.7-8.8-44-24.8-60.1Zm-60.3 124.9h-.1a70.3 70.3 0 0 1-35.8-9.8l-2.6-1.5-24.7 6.5 6.6-24.1-1.7-2.8a70.5 70.5 0 1 1 58.3 31.7Zm38.7-52.7c-2.1-1.1-12.6-6.2-14.6-6.9-2-.7-3.4-1.1-4.8 1.1-1.4 2.1-5.5 6.9-6.8 8.3-1.3 1.4-2.5 1.6-4.6.5-2.1-1.1-9-3.3-17.1-10.5-6.3-5.6-10.6-12.6-11.8-14.7-1.2-2.1-.1-3.3.9-4.3.9-.9 2.1-2.5 3.2-3.7 1.1-1.2 1.4-2.1 2.1-3.5.7-1.4.4-2.6-.2-3.7-.5-1.1-4.8-11.6-6.6-15.9-1.7-4.1-3.5-3.6-4.8-3.6h-4.1c-1.4 0-3.7.5-5.7 2.6-2 2.1-7.5 7.4-7.5 18s7.7 20.8 8.8 22.3c1.1 1.4 15.2 23.2 36.8 32.5 5.1 2.2 9.1 3.5 12.2 4.5 5.1 1.6 9.8 1.4 13.5.8 4.1-.6 12.6-5.2 14.4-10.1 1.8-5 1.8-9.2 1.2-10.1-.5-.9-1.9-1.4-4.1-2.5Z"/>
</svg>